<svg width="325" height="97" viewBox="0 0 325 97" fill="none" xmlns="http://www.w3.org/2000/svg">
<path d="M58.9425 51.416C60.0065 51.773 61.2448 52.304 62.6573 53.009C65.1339 54.428 67.2528 56.369 69.0322 58.8409C71.1603 62.3748 72.2151 66.6137 72.2151 71.5575C72.2151 88.5222 61.9419 97 41.4138 97H1.59601C0.532005 97 0 96.469 0 95.407V13.7787C0 12.7167 0.532005 12.1857 1.59601 12.1857H43.551C50.9899 12.1857 56.9979 14.2273 61.6025 18.2831C66.1979 22.348 68.5094 27.7404 68.5094 34.4513C68.5094 38.3422 67.6197 41.7846 65.8585 44.7875C64.0791 47.7996 61.7768 50.006 58.9425 51.416ZM40.891 84.8052C46.9082 84.8052 51.3293 83.8347 54.1636 81.8938C56.9887 79.9529 58.4105 76.5929 58.4105 71.823C58.4105 67.0531 56.9887 63.7023 54.1636 61.7522C51.3293 59.8113 46.899 58.8409 40.891 58.8409H15.9326C14.5109 58.8409 13.8046 59.3719 13.8046 60.4339V83.2305C13.8046 84.2925 14.5109 84.8235 15.9326 84.8235H40.891V84.8052ZM15.9326 24.3805C14.8686 24.3805 14.3366 24.9115 14.3366 25.9735V45.053C14.3366 46.1151 14.8686 46.6461 15.9326 46.6461H40.359C49.559 46.6461 54.1636 42.9382 54.1636 35.5133C54.1636 28.0883 49.559 24.3805 40.359 24.3805H15.9326V24.3805ZM144.981 51.416C146.045 51.773 147.109 52.304 148.163 53.009C150.989 54.428 153.117 56.369 154.538 58.8409C157.015 62.3748 158.253 66.6137 158.253 71.5575C158.253 88.5222 147.98 97 127.452 97H87.6249C86.5609 97 86.0289 96.469 86.0289 95.407V13.7787C86.0289 12.7167 86.5609 12.1857 87.6249 12.1857H129.58C136.661 12.1857 142.587 14.2273 147.375 18.2831C152.153 22.348 154.547 27.7404 154.547 34.4513C154.547 38.3422 153.658 41.7846 151.897 44.7875C150.108 47.7996 147.806 50.006 144.981 51.416ZM101.43 24.3805C100.365 24.3805 99.8335 24.9115 99.8335 25.9735V45.053C99.8335 46.1151 100.365 46.6461 101.43 46.6461H126.388C135.588 46.6461 140.192 42.9382 140.192 35.5133C140.192 28.0883 135.588 24.3805 126.388 24.3805H101.43V24.3805ZM126.92 84.8052C132.937 84.8052 137.358 83.8347 140.192 81.8938C143.018 79.9529 144.439 76.5929 144.439 71.823C144.439 67.0531 143.018 63.7023 140.192 61.7522C137.358 59.8113 132.928 58.8409 126.92 58.8409H101.43C100.365 58.8409 99.8335 59.3719 99.8335 60.4339V83.2305C99.8335 84.2925 100.365 84.8235 101.43 84.8235H126.92V84.8052ZM234.192 13.2477C234.541 12.5427 234.899 12.1857 235.256 12.1857H249.061C249.409 12.1857 249.767 12.3688 250.125 12.7167C250.473 13.0737 250.473 13.4308 250.125 13.7787L206.051 96.469C205.693 96.826 205.253 97 204.721 97C204.189 97 203.74 96.826 203.391 96.469L159.317 13.7787C158.959 13.4308 158.868 13.0737 159.051 12.7167C159.225 12.3688 159.666 12.1857 160.381 12.1857H173.654C174.36 12.1857 174.892 12.5427 175.25 13.2477L203.391 66.2566C203.391 66.6137 203.74 66.7876 204.455 66.7876C205.161 66.7876 205.693 66.6137 206.051 66.2566L234.192 13.2477ZM250.125 83.7523C249.767 84.4664 249.235 84.8144 248.529 84.8144H234.724C234.367 84.8144 234.101 84.6404 233.926 84.2833C233.743 83.9354 233.66 83.5784 233.66 83.2213L277.743 0.531005C278.092 0.183105 278.624 0 279.339 0C280.046 0 280.578 0.183105 280.935 0.531005L325 83.2213C325 83.5784 324.908 83.9354 324.734 84.2833C324.551 84.6404 324.285 84.8144 323.936 84.8144H310.131C309.416 84.8144 308.884 84.4664 308.535 83.7523L280.917 30.7434C280.559 30.0384 280.027 29.6814 279.321 29.6814C278.606 29.6814 278.074 30.0384 277.725 30.7434L250.125 83.7523Z" fill="white"/>
</svg>
